<svg width="32" height="32" viewBox="0 0 32 32" fill="none" xmlns="http://www.w3.org/2000/svg">
<rect width="32" height="32" rx="6" fill="#F5F5F7"/>
<path opacity="0.4" d="M11.1479 18.9113C10.9764 19.0829 10.88 19.3156 10.88 19.5583C10.88 19.8009 10.9764 20.0336 11.1479 20.2052L11.7949 20.8522C11.9665 21.0238 12.1992 21.1201 12.4419 21.1201C12.6845 21.1201 12.9172 21.0238 13.0889 20.8522L16 17.9411L14.059 16.0001L11.1479 18.9113ZM20.8521 11.795L20.2051 11.148C20.0335 10.9765 19.8008 10.8801 19.5581 10.8801C19.3155 10.8801 19.0828 10.9765 18.9112 11.148L16 14.0592L17.941 16.0001L20.8521 13.089C21.0236 12.9174 21.12 12.6846 21.12 12.442C21.12 12.1993 21.0236 11.9666 20.8521 11.795Z" fill="#748CAD"/>
<path d="M20.8521 18.9113C21.0236 19.0829 21.12 19.3156 21.12 19.5583C21.12 19.8009 21.0236 20.0336 20.8521 20.2052L20.2051 20.8522C20.0335 21.0238 19.8008 21.1201 19.5581 21.1201C19.3155 21.1201 19.0828 21.0238 18.9112 20.8522L11.1479 13.089C10.9764 12.9174 10.88 12.6846 10.88 12.442C10.88 12.1993 10.9764 11.9666 11.1479 11.795L11.7949 11.148C11.9665 10.9765 12.1992 10.8801 12.4419 10.8801C12.6845 10.8801 12.9172 10.9765 13.0889 11.148L20.8521 18.9113Z" fill="#748CAD"/>
<path d="M17.9409 16.0001L20.8521 13.089C21.2093 12.7318 21.2093 12.1526 20.8521 11.795L20.2051 11.1481C19.8479 10.7908 19.2687 10.7908 18.9111 11.1481L16 14.0592L13.0889 11.1481C12.7316 10.7908 12.1524 10.7908 11.7949 11.1481L11.1479 11.795C10.7907 12.1523 10.7907 12.7315 11.1479 13.089L14.0591 16.0001L11.1479 18.9113C10.7907 19.2685 10.7907 19.8477 11.1479 20.2052L11.7949 20.8522C12.1522 21.2094 12.7316 21.2094 13.0889 20.8522L16 17.9411L18.9111 20.8522C19.2684 21.2094 19.8479 21.2094 20.2051 20.8522L20.8521 20.2052C21.2093 19.848 21.2093 19.2688 20.8521 18.9113L17.9409 16.0001Z" fill="#748CAD"/>
</svg>
